<svg id="_001-instagram" data-name="001-instagram" xmlns="http://www.w3.org/2000/svg" width="22.303" height="22.303" viewBox="0 0 22.303 22.303">
  <g id="Grupo_17" data-name="Grupo 17">
    <g id="Grupo_16" data-name="Grupo 16">
      <path id="Trazado_37" data-name="Trazado 37" d="M15.333,0H6.97A6.97,6.97,0,0,0,0,6.97v8.364A6.97,6.97,0,0,0,6.97,22.3h8.364a6.97,6.97,0,0,0,6.97-6.97V6.97A6.97,6.97,0,0,0,15.333,0Zm4.879,15.333a4.884,4.884,0,0,1-4.879,4.879H6.97a4.884,4.884,0,0,1-4.879-4.879V6.97A4.884,4.884,0,0,1,6.97,2.091h8.364A4.884,4.884,0,0,1,20.212,6.97Z"/>
    </g>
  </g>
  <g id="Grupo_19" data-name="Grupo 19" transform="translate(5.576 5.576)">
    <g id="Grupo_18" data-name="Grupo 18">
      <path id="Trazado_38" data-name="Trazado 38" d="M133.576,128a5.576,5.576,0,1,0,5.576,5.576A5.576,5.576,0,0,0,133.576,128Zm0,9.061a3.485,3.485,0,1,1,3.485-3.485A3.49,3.49,0,0,1,133.576,137.061Z" transform="translate(-128 -128)"/>
    </g>
  </g>
  <g id="Grupo_21" data-name="Grupo 21" transform="translate(16.403 4.415)">
    <g id="Grupo_20" data-name="Grupo 20">
      <ellipse id="Elipse_2" data-name="Elipse 2" cx="0.743" cy="0.743" rx="0.743" ry="0.743"/>
    </g>
  </g>
</svg>
