<svg id="_002-gorjeo" data-name="002-gorjeo" xmlns="http://www.w3.org/2000/svg" width="19.953" height="16.212" viewBox="0 0 19.953 16.212">
  <g id="Grupo_24" data-name="Grupo 24" transform="translate(0 0)">
    <path id="Trazado_51" data-name="Trazado 51" d="M19.953,49.919a8.529,8.529,0,0,1-2.357.646A4.068,4.068,0,0,0,19.4,48.3a8.175,8.175,0,0,1-2.594.99,4.09,4.09,0,0,0-7.076,2.8,4.212,4.212,0,0,0,.095.933,11.578,11.578,0,0,1-8.431-4.279,4.092,4.092,0,0,0,1.257,5.467,4.04,4.04,0,0,1-1.848-.5v.045a4.109,4.109,0,0,0,3.277,4.019A4.083,4.083,0,0,1,3,57.908a3.617,3.617,0,0,1-.774-.07,4.129,4.129,0,0,0,3.822,2.85A8.219,8.219,0,0,1,.979,62.432,7.663,7.663,0,0,1,0,62.376a11.516,11.516,0,0,0,6.275,1.836,11.562,11.562,0,0,0,11.643-11.64c0-.181-.006-.355-.015-.529A8.16,8.16,0,0,0,19.953,49.919Z" transform="translate(0 -48)"/>
  </g>
</svg>
