<svg xmlns="http://www.w3.org/2000/svg" width="301.87" height="53.827" viewBox="0 0 301.87 53.827">
  <g id="Grupo_25" data-name="Grupo 25" transform="translate(-10.641 -10.482)">
    <rect id="Rectángulo_66" data-name="Rectángulo 66" width="0.961" height="53.823" transform="translate(66.826 10.486)"/>
    <g id="Grupo_7" data-name="Grupo 7" transform="translate(88.228 16.849)">
      <path id="Trazado_13" data-name="Trazado 13" d="M82.074,13.912h5.208V52.825h-5.6V22.546L69.719,37.587h-1.03l-12.1-15.041V52.825H51.015V13.912h5.273L69.219,29.893Z" transform="translate(-51.015 -13.687)"/>
      <path id="Trazado_14" data-name="Trazado 14" d="M90.215,13.8h3.916l17.449,39.138h-5.7L100.69,41.4h-16.6L79.227,52.933H73.5ZM98.4,36.442,92.121,22.349,86.3,36.442Z" transform="translate(-30.289 -13.795)"/>
      <path id="Trazado_15" data-name="Trazado 15" d="M97.047,52.767V13.912h13.12q7.936,0,12.562,2.381a17.972,17.972,0,0,1,7.356,7,19.514,19.514,0,0,1,2.729,10.083,19.013,19.013,0,0,1-1.507,7.466,19.254,19.254,0,0,1-10.89,10.473,19.545,19.545,0,0,1-4.039,1.155,53.879,53.879,0,0,1-7.018.292Zm12.537-33.9h-6.966V47.809h7.131a28.407,28.407,0,0,0,6.49-.571,15.216,15.216,0,0,0,3.857-1.449,12.928,12.928,0,0,0,2.827-2.158,14.412,14.412,0,0,0,4.126-10.556,13.363,13.363,0,0,0-4.234-10.223,13.535,13.535,0,0,0-3.582-2.423,15,15,0,0,0-3.828-1.253A39.085,39.085,0,0,0,109.584,18.87Z" transform="translate(-8.587 -13.687)"/>
      <path id="Trazado_16" data-name="Trazado 16" d="M120.854,52.825V13.912H130.6q5.906,0,9.372,2.925a9.807,9.807,0,0,1,3.469,7.91,9.73,9.73,0,0,1-6.572,9.582,17.288,17.288,0,0,1,3.647,3.342,66.913,66.913,0,0,1,5.016,7.383q2.032,3.315,3.257,4.985l2.06,2.786h-6.628l-1.7-2.564c-.056-.094-.169-.252-.332-.475l-1.086-1.534-1.726-2.842-1.862-3.038a30.338,30.338,0,0,0-3.161-3.815,12.157,12.157,0,0,0-2.592-2.045,8.773,8.773,0,0,0-3.893-.625h-1.449V52.825Zm7.241-34.18h-1.672V30.931h2.118a15.651,15.651,0,0,0,5.805-.724,5.445,5.445,0,0,0,2.452-2.187,6.332,6.332,0,0,0,.878-3.328,5.952,5.952,0,0,0-.976-3.328,5.216,5.216,0,0,0-2.744-2.1A19.814,19.814,0,0,0,128.1,18.645Z" transform="translate(13.356 -13.687)"/>
      <path id="Trazado_17" data-name="Trazado 17" d="M140.209,13.912h5.571V52.825h-5.571Z" transform="translate(31.196 -13.687)"/>
      <path id="Trazado_18" data-name="Trazado 18" d="M149.114,52.767V13.912h13.121q7.939,0,12.562,2.381a17.963,17.963,0,0,1,7.352,7,19.477,19.477,0,0,1,2.729,10.083,19.045,19.045,0,0,1-5.792,13.733,18.812,18.812,0,0,1-6.6,4.207,19.679,19.679,0,0,1-4.039,1.155,53.879,53.879,0,0,1-7.018.292Zm12.535-33.9h-6.962V47.809h7.131a28.43,28.43,0,0,0,6.49-.571,15.26,15.26,0,0,0,3.859-1.449,13.207,13.207,0,0,0,2.827-2.158,14.415,14.415,0,0,0,4.12-10.556,13.356,13.356,0,0,0-4.234-10.223,13.567,13.567,0,0,0-3.576-2.423,15.014,15.014,0,0,0-3.834-1.253A39.05,39.05,0,0,0,161.649,18.87Z" transform="translate(39.404 -13.687)"/>
    </g>
    <g id="Grupo_8" data-name="Grupo 8" transform="translate(10.641 10.482)">
      <path id="Trazado_19" data-name="Trazado 19" d="M44.991,14.975H12.712a.752.752,0,1,0,0,1.5H44.991a.752.752,0,0,0,0-1.5" transform="translate(-9.426 -6.341)"/>
      <path id="Trazado_20" data-name="Trazado 20" d="M44.991,16.965H12.712a.752.752,0,1,0,0,1.5H44.991a.752.752,0,0,0,0-1.5" transform="translate(-9.426 -4.507)"/>
      <path id="Trazado_21" data-name="Trazado 21" d="M12.712,17.473H14.39a.751.751,0,0,0,0-1.5H12.712a.751.751,0,1,0,0,1.5" transform="translate(-9.426 -5.424)"/>
      <path id="Trazado_22" data-name="Trazado 22" d="M30.314,15.97H28.636a.751.751,0,1,0,0,1.5h1.678a.751.751,0,0,0,0-1.5" transform="translate(5.251 -5.424)"/>
      <path id="Trazado_23" data-name="Trazado 23" d="M23.6,17.473a.751.751,0,0,0,0-1.5H20.238a.751.751,0,1,0,0,1.5Z" transform="translate(-2.491 -5.424)"/>
      <path id="Trazado_24" data-name="Trazado 24" d="M17.736,15.9l-2.473.85,2.473.849,2.473-.849Z" transform="translate(-6.381 -5.485)"/>
      <path id="Trazado_25" data-name="Trazado 25" d="M26.135,15.9l-2.472.85,2.472.849,2.474-.849Z" transform="translate(1.361 -5.485)"/>
      <path id="Trazado_26" data-name="Trazado 26" d="M28.271,16.74a.819.819,0,1,0-.819.819.82.82,0,0,0,.819-.819" transform="translate(4.1 -5.471)"/>
      <path id="Trazado_27" data-name="Trazado 27" d="M24.05,16.74a.819.819,0,1,0-.819.819.819.819,0,0,0,.819-.819" transform="translate(0.209 -5.471)"/>
      <path id="Trazado_28" data-name="Trazado 28" d="M19.873,16.74a.82.82,0,1,0-.821.819.821.821,0,0,0,.821-.819" transform="translate(-3.642 -5.471)"/>
      <path id="Trazado_29" data-name="Trazado 29" d="M15.65,16.74a.819.819,0,1,0-.819.819.82.82,0,0,0,.819-.819" transform="translate(-7.533 -5.471)"/>
      <path id="Trazado_30" data-name="Trazado 30" d="M47.816,10.482a2.694,2.694,0,0,0-2.2,1.407,4.556,4.556,0,0,0-.6-.081,1.614,1.614,0,0,0-.909.165,1.6,1.6,0,0,1,.832,1.263,1.6,1.6,0,0,1-1.249-.834,1.605,1.605,0,0,0-.165.911c0,.1,0,.221.006.323a1.944,1.944,0,0,0-1.288.68,1.952,1.952,0,0,0,1.288.68c0,.1-.006.221-.006.323a1.593,1.593,0,0,0,.165.909,1.633,1.633,0,0,1,1.543-.849h.142c0,.063.006.123.006.181,0,.832-.384,1.587-1.4,1.587a1.336,1.336,0,0,1-1.186-.805.943.943,0,1,0-1.71-.548.932.932,0,0,0,.177.548,1.342,1.342,0,0,1-1.188.805c-1.011,0-1.4-.755-1.4-1.587,0-.058,0-.117.008-.181h.142a1.633,1.633,0,0,1,1.543.849,1.61,1.61,0,0,0,.165-.909c0-.1,0-.221-.008-.323a1.952,1.952,0,0,0,1.289-.68,1.944,1.944,0,0,0-1.289-.68c.006-.1.008-.223.008-.323a1.622,1.622,0,0,0-.165-.911,1.606,1.606,0,0,1-1.249.834,1.6,1.6,0,0,1,.832-1.263,1.61,1.61,0,0,0-.909-.165c-.1,0-.221,0-.323.008a1.952,1.952,0,0,0-.68-1.289,1.954,1.954,0,0,0-.682,1.289c-.1-.006-.221-.008-.321-.008a1.622,1.622,0,0,0-.911.165,1.6,1.6,0,0,1,.834,1.263,1.6,1.6,0,0,1-1.249-.834,1.622,1.622,0,0,0-.165.911c0,.1,0,.221.008.323a1.94,1.94,0,0,0-1.289.68,1.948,1.948,0,0,0,1.289.68c-.006.1-.008.221-.008.323a1.61,1.61,0,0,0,.165.909,1.633,1.633,0,0,1,1.543-.849H37.4c0,.063.006.123.006.181,0,.832-.386,1.587-1.4,1.587a1.342,1.342,0,0,1-1.188-.805A.932.932,0,0,0,35,15.794a.944.944,0,0,0-.944-.944.9.9,0,0,0-.19.019.942.942,0,0,0-.577,1.472,1.336,1.336,0,0,1-1.186.805c-1.011,0-1.4-.755-1.4-1.587,0-.058,0-.117.008-.181h.142a1.633,1.633,0,0,1,1.543.849,1.61,1.61,0,0,0,.165-.909c0-.1,0-.221-.008-.323a1.952,1.952,0,0,0,1.289-.68,1.944,1.944,0,0,0-1.289-.68c0-.1.008-.223.008-.323A1.622,1.622,0,0,0,32.4,12.4a1.606,1.606,0,0,1-1.251.834,1.6,1.6,0,0,1,.834-1.263,1.618,1.618,0,0,0-.909-.165c-.1,0-.221,0-.323.008a1.946,1.946,0,0,0-.682-1.289,1.952,1.952,0,0,0-.68,1.289c-.1-.006-.221-.008-.321-.008a1.622,1.622,0,0,0-.911.165,1.6,1.6,0,0,1,.834,1.263,1.61,1.61,0,0,1-1.251-.834,1.622,1.622,0,0,0-.165.911c0,.1,0,.221.008.323a1.944,1.944,0,0,0-1.289.68,1.952,1.952,0,0,0,1.289.68c0,.1-.008.221-.008.323a1.61,1.61,0,0,0,.165.909,1.635,1.635,0,0,1,1.543-.849h.142c.006.063.008.123.008.181,0,.832-.386,1.587-1.4,1.587a1.341,1.341,0,0,1-1.188-.807.943.943,0,1,0-1.534.006,1.338,1.338,0,0,1-1.186.8c-1.009,0-1.4-.755-1.4-1.587,0-.058,0-.117.008-.181h.14a1.636,1.636,0,0,1,1.545.849,1.61,1.61,0,0,0,.165-.909c0-.1,0-.221-.008-.323a1.957,1.957,0,0,0,1.289-.68,1.949,1.949,0,0,0-1.289-.68c0-.1.008-.223.008-.323a1.622,1.622,0,0,0-.165-.911,1.61,1.61,0,0,1-1.251.834A1.605,1.605,0,0,1,24,11.973a1.6,1.6,0,0,0-.907-.165c-.1,0-.223,0-.325.008a1.944,1.944,0,0,0-.68-1.289,1.952,1.952,0,0,0-.68,1.289c-.1-.006-.223-.008-.323-.008a1.61,1.61,0,0,0-.909.165,1.607,1.607,0,0,1,.834,1.263,1.6,1.6,0,0,1-1.251-.834,1.622,1.622,0,0,0-.165.911c0,.1,0,.221.008.323a1.944,1.944,0,0,0-1.289.68,1.952,1.952,0,0,0,1.289.68c-.006.1-.008.221-.008.323a1.61,1.61,0,0,0,.165.909,1.633,1.633,0,0,1,1.543-.849h.142c0,.063.008.123.008.181,0,.832-.388,1.587-1.4,1.587a1.342,1.342,0,0,1-1.188-.805.919.919,0,0,0,.177-.548.943.943,0,1,0-1.885,0,.932.932,0,0,0,.177.548,1.344,1.344,0,0,1-1.188.805c-1.011,0-1.4-.755-1.4-1.587,0-.058,0-.117.006-.181h.142a1.633,1.633,0,0,1,1.543.849,1.593,1.593,0,0,0,.165-.909c0-.1,0-.221-.006-.323a1.952,1.952,0,0,0,1.288-.68,1.944,1.944,0,0,0-1.288-.68c0-.1.006-.223.006-.323a1.605,1.605,0,0,0-.165-.911,1.6,1.6,0,0,1-1.251.834,1.607,1.607,0,0,1,.834-1.263,1.61,1.61,0,0,0-.909-.165,4.676,4.676,0,0,0-.6.081,2.686,2.686,0,0,0-2.2-1.407,3.11,3.11,0,0,0-1.676.509,2.217,2.217,0,0,1,1.672.6c.8.8.859,1.441.859,3.638,0,2.341,1.2,3.486,2.929,3.486a3.967,3.967,0,0,0,2-.761,3.978,3.978,0,0,0,2.006.761,3.477,3.477,0,0,0,1.981-.811,3.477,3.477,0,0,0,1.981.811,3.978,3.978,0,0,0,2.006-.761,3.977,3.977,0,0,0,2,.761,3.477,3.477,0,0,0,1.981-.811,3.486,3.486,0,0,0,1.983.811,3.977,3.977,0,0,0,2-.761,3.978,3.978,0,0,0,2.006.761,3.477,3.477,0,0,0,1.981-.811,3.477,3.477,0,0,0,1.981.811,3.978,3.978,0,0,0,2.006-.761,3.967,3.967,0,0,0,2,.761c1.728,0,2.927-1.145,2.927-3.486,0-2.2.06-2.838.861-3.638a2.217,2.217,0,0,1,1.672-.6,3.11,3.11,0,0,0-1.676-.509" transform="translate(-10.641 -10.482)"/>
      <path id="Trazado_31" data-name="Trazado 31" d="M12.228,18.019l0,26.848c0,7.952,5.533,12.487,16.377,12.487s16.375-4.535,16.375-12.487V18.019Zm14.849,1.614,1.086.117.44-1,.44,1,1.084-.117-.644.88.644.88-1.084-.117-.44,1-.44-1-1.086.117.646-.88Zm-13.819,0,1.086.117.44-1,.44,1,1.086-.117-.646.88.646.88-1.086-.117-.44,1-.44-1-1.086.117.646-.88Zm0,13.2,1.086.119.44-1,.44,1,1.086-.119-.646.882.646.88-1.086-.119-.44,1-.44-1-1.086.119.646-.88Zm3.25,14.959-1.084-.117-.44,1-.44-1-1.086.117.646-.88-.646-.88,1.086.117.44-1,.44,1,1.084-.117-.644.88Zm12.1,4.27c-6.265,0-9.067-1.872-10.3-3.92H38.905c-1.238,2.049-4.039,3.92-10.3,3.92m3.515-6.868,1.109,1.3-.573.2a.709.709,0,0,0-.3.227l-.127.179H30.938a1.331,1.331,0,0,1-1.332-1.332V39.586l.776,1.541a.5.5,0,0,0,.542.259l.361-.1V41.6a7.179,7.179,0,0,0,.062.972c.177,1.313.7,1.747.945,1.881l-.194.269a.4.4,0,0,0,.019.471m7.746-.884a7.949,7.949,0,0,1-.455,2.788H36.82l-.872-1.977a2.11,2.11,0,0,0,.292-2.5l-1.017-1.747-1.216-3.461L33.918,36l.271-.15a.493.493,0,0,0,.221-.569l-.083-.24a.479.479,0,0,0-.519-.307l-.4.069-.578-.457a.492.492,0,0,0-.35-.085l-.357.071-.822-.651a.191.191,0,0,0-.273.038l-.48.667a.483.483,0,0,0-.017.5l.734,1.188V38.2h-.523c-.288,0-.523-.311-.523-.7v-.682a.545.545,0,0,0-.14-.34L29.606,36V33.277c3.451-.34,6.094-2.243,6.094-4.537,0-2.537-3.228-4.593-7.208-4.593s-7.21,2.056-7.21,4.593c0,2.295,2.642,4.2,6.094,4.537V45.763a1.332,1.332,0,0,1-1.332,1.332H17.8a7.987,7.987,0,0,1-.454-2.788v-21.3H39.864Zm3.882,3.482-1.084-.117-.44,1-.442-1-1.084.117.646-.88-.646-.88,1.084.117.442-1,.44,1,1.084-.117-.644.88Zm.2-13.2-1.082-.119-.442,1-.44-1-1.084.119.644-.88L40.9,32.83l1.084.119.44-1,.442,1,1.082-.119-.644.882Zm0-13.2-1.082-.117-.442,1-.44-1-1.084.117.644-.88-.644-.88,1.084.117.44-1,.442,1,1.082-.117-.644.88Z" transform="translate(-9.18 -3.535)"/>
    </g>
  </g>
</svg>
