<svg xmlns="http://www.w3.org/2000/svg" xmlns:xlink="http://www.w3.org/1999/xlink" width="1922" height="1015.803" viewBox="0 0 1922 1015.803">
  <defs>
    <clipPath id="clip-path">
      <rect id="Rectángulo_67" data-name="Rectángulo 67" width="1922" height="1015.803" fill="none"/>
    </clipPath>
  </defs>
  <g id="Grupo_13" data-name="Grupo 13" transform="translate(-20.334 -89.827)">
    <g id="Grupo_12" data-name="Grupo 12" transform="translate(20.334 89.827)" clip-path="url(#clip-path)">
      <g id="Grupo_11" data-name="Grupo 11" transform="translate(-505.94 -21.013)">
        <path id="Trazado_32" data-name="Trazado 32" d="M1479.34,1122.946l-498.383-2.067L1488.437,75.372l498.383,2.067Z" transform="translate(510.47 -69.188)" fill="#ff8040"/>
        <path id="Trazado_33" data-name="Trazado 33" d="M1965.148,1124.96l-498.383-2.067L1974.245,77.387l498.383,2.067Z" transform="translate(523.045 -69.136)" fill="#ff6c6c"/>
        <path id="Trazado_34" data-name="Trazado 34" d="M994.741,1120.937l-498.383-2.066L1003.838,73.363l498.383,2.067Z" transform="translate(497.927 -69.24)" fill="#61e264"/>
        <path id="Trazado_35" data-name="Trazado 35" d="M510.142,1118.927l-498.383-2.067L519.239,71.354l498.383,2.067Z" transform="translate(485.383 -69.292)" fill="#f9d643"/>
        <path id="Trazado_36" data-name="Trazado 36" d="M25.543,1116.918l-498.383-2.067L34.64,69.344l498.383,2.067Z" transform="translate(472.84 -69.344)" fill="#54ddd6"/>
      </g>
    </g>
  </g>
</svg>
