<svg id="Grupo_3" data-name="Grupo 3" xmlns="http://www.w3.org/2000/svg" width="183.976" height="73.212" viewBox="0 0 183.976 73.212">
  <g id="Grupo_1" data-name="Grupo 1">
    <path id="Trazado_1" data-name="Trazado 1" d="M410.756,54.568h5.777l12.42,29.556,12.418-29.556h5.777V88.5h-4V60.344L431.07,88.5h-4.237L414.752,60.393V88.5h-4Z" transform="translate(-408.831 -54.568)"/>
    <path id="Trazado_2" data-name="Trazado 2" d="M481.005,54.568h4.814L498.912,88.5h-4.236L491.6,80.369H475.228L472.1,88.5h-4.284Zm9.386,22.239-6.98-18.292-7.028,18.292Z" transform="translate(-426.129 -54.568)"/>
    <path id="Trazado_3" data-name="Trazado 3" d="M517.273,54.568h10.4a23.943,23.943,0,0,1,10.35,2.118,16.313,16.313,0,0,1,0,29.7,23.933,23.933,0,0,1-10.35,2.118h-10.4Zm10.4,30.375a19.524,19.524,0,0,0,8.232-1.637,13.161,13.161,0,0,0,5.535-18.822,12.952,12.952,0,0,0-5.535-4.693,19.281,19.281,0,0,0-8.232-1.661h-6.4V84.943Z" transform="translate(-441.122 -54.568)"/>
    <path id="Trazado_4" data-name="Trazado 4" d="M589.318,88.961a4.842,4.842,0,0,1-1.612-1.348,5.884,5.884,0,0,1-.987-2.094L584.649,78.4a5.994,5.994,0,0,0-1.9-3.081,4.7,4.7,0,0,0-3.105-1.155h-8.568V88.5h-4V54.568h15.211a14.676,14.676,0,0,1,6.161,1.252,10.461,10.461,0,0,1,4.309,3.465,8.82,8.82,0,0,1,.457,9.291,9.246,9.246,0,0,1-3.105,3.2,11.564,11.564,0,0,1-4.6,1.661,6.322,6.322,0,0,1,1.925,1.877,9.5,9.5,0,0,1,1.252,2.7l1.684,6.113a3.1,3.1,0,0,0,.77,1.444,1.71,1.71,0,0,0,1.252.53,2.719,2.719,0,0,0,1.613-.578,4.831,4.831,0,0,0,1.372-1.637l2.022,2.36a8.731,8.731,0,0,1-2.576,2.358,6.178,6.178,0,0,1-3.2.867A4.911,4.911,0,0,1,589.318,88.961ZM582.289,70.6A10.338,10.338,0,0,0,586.4,69.8a6.866,6.866,0,0,0,2.889-2.19,5.509,5.509,0,0,0,0-6.426,6.961,6.961,0,0,0-2.889-2.238,10.075,10.075,0,0,0-4.116-.819H571.074V70.6Z" transform="translate(-456.221 -54.568)"/>
    <path id="Trazado_5" data-name="Trazado 5" d="M614.741,54.568h4V88.5h-4Z" transform="translate(-470.671 -54.568)"/>
    <path id="Trazado_6" data-name="Trazado 6" d="M628.764,54.568h10.4a23.945,23.945,0,0,1,10.349,2.118,16.313,16.313,0,0,1,0,29.7A23.935,23.935,0,0,1,639.162,88.5h-10.4Zm10.4,30.375a19.526,19.526,0,0,0,8.232-1.637,13.163,13.163,0,0,0,5.535-18.822,12.95,12.95,0,0,0-5.535-4.693,19.283,19.283,0,0,0-8.232-1.661h-6.4V84.943Z" transform="translate(-474.922 -54.568)"/>
    <path id="Trazado_7" data-name="Trazado 7" d="M415.622,142.326a13.658,13.658,0,0,1-5.222-4.164,12.1,12.1,0,0,1-2.407-6.041l3.948-.674a8.234,8.234,0,0,0,1.612,4.5,10.16,10.16,0,0,0,3.875,3.153,11.96,11.96,0,0,0,5.247,1.155,10.977,10.977,0,0,0,4.5-.867,7.3,7.3,0,0,0,3.032-2.358,5.518,5.518,0,0,0,1.084-3.322,4.241,4.241,0,0,0-1.276-3.2,8.454,8.454,0,0,0-3.153-1.878,49.63,49.63,0,0,0-5.055-1.371,51.961,51.961,0,0,1-6.33-1.685,9.643,9.643,0,0,1-3.946-2.647,7.24,7.24,0,0,1-1.661-5.055,9.856,9.856,0,0,1,5.511-9.05,13.851,13.851,0,0,1,11.554-.168,11.218,11.218,0,0,1,4.188,3.322,10.931,10.931,0,0,1,2.142,4.886l-3.8.962a7.25,7.25,0,0,0-2.575-4.886,8.154,8.154,0,0,0-5.463-1.9,9.1,9.1,0,0,0-3.971.817,6.391,6.391,0,0,0-2.647,2.239,5.511,5.511,0,0,0-.939,3.1,4.127,4.127,0,0,0,1.251,3.153,7.718,7.718,0,0,0,2.961,1.733q1.708.554,5.127,1.323a48.071,48.071,0,0,1,6.234,1.709,10.1,10.1,0,0,1,4.139,2.816,7.479,7.479,0,0,1,1.709,5.15A9.85,9.85,0,0,1,433.7,138.6a10.853,10.853,0,0,1-4.453,3.827,14.819,14.819,0,0,1-6.571,1.4A16.488,16.488,0,0,1,415.622,142.326Z" transform="translate(-407.993 -70.607)"/>
    <path id="Trazado_8" data-name="Trazado 8" d="M452.687,109.2h4v33.937h-4Z" transform="translate(-421.542 -71.131)"/>
    <path id="Trazado_9" data-name="Trazado 9" d="M473.574,141.46a16.848,16.848,0,0,1-6.3-6.474,18.846,18.846,0,0,1-2.286-9.314,19.449,19.449,0,0,1,2.238-9.363,16.363,16.363,0,0,1,6.209-6.5,17.386,17.386,0,0,1,8.978-2.335,15.552,15.552,0,0,1,6.33,1.324,15.756,15.756,0,0,1,5.2,3.658,14.553,14.553,0,0,1,3.2,5.271l-3.706,1.2a10.927,10.927,0,0,0-2.455-4.092,12.461,12.461,0,0,0-3.9-2.792,11.23,11.23,0,0,0-4.718-1.01,12.778,12.778,0,0,0-11.673,7.076,16.288,16.288,0,0,0-1.708,7.558,15.514,15.514,0,0,0,1.8,7.485,13.181,13.181,0,0,0,5.007,5.223,13.952,13.952,0,0,0,7.2,1.877,13.774,13.774,0,0,0,6.763-1.684,12.812,12.812,0,0,0,4.838-4.6,12.251,12.251,0,0,0,1.781-6.522H476.343V123.89h24.116v18.726H497.09l-.433-6.547a16.065,16.065,0,0,1-14.008,7.75A17.6,17.6,0,0,1,473.574,141.46Z" transform="translate(-425.27 -70.607)"/>
    <path id="Trazado_10" data-name="Trazado 10" d="M528.753,142.513a12.781,12.781,0,0,1-4.886-5.1,15.325,15.325,0,0,1-1.757-7.365V109.2H526.1v20.844a11.885,11.885,0,0,0,1.227,5.391,9.777,9.777,0,0,0,3.442,3.9,9.134,9.134,0,0,0,5.1,1.444,9.115,9.115,0,0,0,8.5-5.2A12.308,12.308,0,0,0,545.6,130V109.2h4.044v20.844a15.332,15.332,0,0,1-1.757,7.365,12.743,12.743,0,0,1-4.909,5.1,14.741,14.741,0,0,1-14.225,0Z" transform="translate(-442.589 -71.131)"/>
  </g>
  <g id="Grupo_2" data-name="Grupo 2" transform="translate(142.264 38.213)">
    <path id="Trazado_11" data-name="Trazado 11" d="M635.638,141.075l13.005-13.446H612.148v-2.793h36.495l-13.005-13.519,2.056-1.911,16.166,16.826-16.166,16.827Z" transform="translate(-612.148 -109.406)"/>
  </g>
  <path id="Trazado_12" data-name="Trazado 12" d="M569.22,109.2h23.2v3.562h-19.3v11.119H590.5v3.466H573.12v12.227H592.9v3.562H569.22Z" transform="translate(-456.871 -71.131)"/>
</svg>
